<?xml version="1.0" encoding="UTF-8" standalone="no"?>
<!-- Created with Inkscape (http://www.inkscape.org/) -->

<svg
   width="92.000008mm"
   height="90mm"
   viewBox="0 0 92.000007 90"
   version="1.1"
   id="svg707"
   xmlns="http://www.w3.org/2000/svg"
   xmlns:svg="http://www.w3.org/2000/svg">
  <defs
     id="defs704" />
  <g
     id="layer1"
     transform="translate(-61.776,-88.3872)">
    <path
       d="m 151.26459,111.27201 -0.0627,-0.0609 -0.25875,-0.18493 -0.10734,-0.12952 -0.0589,-0.2877 0.003,-0.15241 0.0879,0.0179 -0.11935,-0.0895 -0.11357,-0.0269 -0.25075,0.0344 -0.52233,0.25714 -0.2943,0.0964 -0.24571,-0.10998 -0.20318,-0.26329 -0.14754,-0.22711 0.0283,-0.18036 0.59544,-0.22513 0.15962,-0.19817 0.26061,-0.53622 0.74192,-0.83789 -0.019,-0.1562 -0.24721,0.11633 -0.27547,0.19356 -0.24809,0.25784 -0.15588,0.31268 -0.0409,-0.64572 0.19072,-0.55712 0.31098,-0.46196 0.31407,-0.34353 -0.98945,0.0115 -0.24356,0.1246 -0.40834,0.35857 -0.1942,-0.0485 -0.0419,-0.71077 -0.67371,-0.12167 -1.35567,0.12801 0.69803,-0.38218 -0.3315,-0.24134 -0.3541,-0.12799 -0.36671,-0.0317 -0.36637,0.0288 -0.19863,0.15515 -0.25879,0.35805 -0.20873,0.43108 -0.0656,0.39327 0.0564,0.20143 0.0822,0.17503 0.061,0.17517 -0.002,0.20719 -0.10899,0.31113 -0.10152,-0.0475 -0.1757,-0.33249 -0.21238,-0.19046 -0.12455,-0.0565 -0.16759,0.019 -0.0584,0.0837 -0.0828,0.16356 -0.11364,0.16415 -0.1584,0.0821 0.88275,-1.56059 0.055,-0.3902 -0.84124,-0.65586 -0.37177,-0.75148 -0.0757,-0.20244 -0.87408,0.45528 -1.47981,1.88005 -0.2204,0.35962 -0.0689,0.37159 -0.80337,1.20101 -0.32045,0.75096 -0.22962,0.34927 -0.2718,0.17229 -0.10305,0.0983 -0.0384,0.19655 0.0576,0.19243 0.19426,0.0836 0.11781,-0.0426 0.29597,-0.2212 1.91705,-2.39384 0.52198,-0.94998 0.23146,-0.15497 0.59023,-0.1341 0.26925,-0.13432 0.26099,-0.19913 -0.003,0.40857 -0.15434,0.22669 -0.2554,0.12008 -0.28079,0.0566 -0.25265,0.19217 -0.32748,0.74862 -0.13396,0.18652 -0.18056,0.16704 -0.66724,1.10984 -0.22045,0.25678 -0.70627,0.61229 -0.69126,0.99281 -0.25529,0.16277 -0.30824,0.11286 -0.23121,0.20723 -0.35969,0.51273 -0.83668,0.76503 -0.0957,0.31474 0.086,0.20113 0.15495,-0.004 0.17918,-0.0655 0.1833,0.004 0.13809,0.1233 0.16392,0.35818 0.146,0.16942 0.18318,0.0858 0.14412,-0.035 0.45022,-0.22899 0.22116,-0.32606 0.31739,-0.19441 0.71766,-0.61433 0.87915,-0.39397 0.40824,-0.50041 0.54554,-0.41417 0.27267,-0.13827 -0.17547,0.48249 -0.33339,0.51908 -0.40053,0.42058 -0.55772,0.34593 -0.21136,0.52836 -0.35653,0.27422 -0.35278,0.55661 -0.12146,0.13463 -0.18418,0.12742 -0.12134,0.26285 -0.0926,0.3008 -0.1091,0.24262 -0.19435,0.22336 -0.3917,0.28218 -0.18335,0.1841 -0.12494,0.17375 -0.13519,0.25753 -0.0932,0.2953 0.002,0.32205 0.10423,0.19037 0.15692,0.19891 0.0711,0.21574 -0.13608,0.23524 0.1912,0.24242 -0.0164,0.13862 -0.15498,0.0118 -0.2352,-0.15191 -0.0842,0.0243 -0.10942,0.42289 -0.089,0.11577 -0.45884,0.0662 0.11563,0.11471 -0.27546,0.19354 0.0649,0.0995 0.0402,0.12248 -0.0267,0.0762 -0.13785,-0.0153 -0.16193,-0.0958 -0.0169,-0.066 0.0575,-0.0943 0.23783,-0.52534 0.1917,-0.28523 0.0832,-0.27457 -0.15291,-0.34559 -0.43275,-0.3553 -0.54302,-0.17436 -0.55479,-8.2e-4 -0.46637,0.16297 -1.26892,1.28947 -0.42532,0.2261 -0.72266,-0.0772 -0.14214,-0.0695 -0.0772,-0.0884 0.0957,-0.10102 0.0704,-0.1101 0.10005,-0.12097 0.13571,-0.0626 0.0307,-0.0785 -0.002,-0.16569 -0.0162,-0.18625 -0.0285,-0.14734 -0.22054,0.13347 -0.0598,0.0551 0.10282,-0.41522 0.23787,-0.35479 0.99157,-0.87051 0.13906,-0.21745 0.0961,-0.0213 0.15217,0.0555 0.17958,-0.0374 0.14713,-0.30319 0.12282,0.0825 0.1102,0.0337 0.25443,-0.0277 -0.12559,-0.16832 -0.38539,-0.39375 0.0161,-0.0904 0.21771,0.0471 0.18386,0.10757 0.15733,0.0392 0.14787,-0.16451 -0.81832,-0.55058 -0.28877,-0.0103 0.11838,0.23404 -0.20957,0.0659 -0.29137,0.026 -0.13663,0.10537 -0.11292,0.18974 -0.27532,0.16868 -0.30844,0.11236 -0.19864,0.01 0.10526,-0.30084 0.1872,-0.15879 0.21178,-0.13534 0.16259,-0.21366 -0.11674,0.0134 -0.27238,-0.10553 0.20855,-0.0681 0.74278,-0.0915 0.16385,-0.065 0.0785,-0.24499 0.2553,-0.14613 0.56115,-0.0918 0.31448,0.0798 0.16996,0.0142 0.12515,-0.11164 0.10043,-0.16128 0.1231,-0.12719 0.13924,-0.0934 0.15308,-0.0469 0.25764,-0.19249 0.0742,-0.37252 8e-4,-0.43639 0.0298,-0.35696 0.19513,-0.37621 0.2394,-0.33034 0.19398,-0.34375 0.0558,-0.41333 -0.18684,-0.1753 -0.33157,0.18701 -0.55498,0.51717 -0.60689,0.094 -0.28144,0.11306 -0.19658,0.54884 -0.83918,0.651 -0.16974,0.33797 -0.11963,0.35501 -0.17161,0.28205 -0.31006,0.1451 -1.24942,0.31574 0.0572,-0.42606 0.20684,-0.2068 1.14964,-0.50891 0.27625,-0.19362 0.22527,-0.23299 0.71003,-1.36484 0.45387,-0.64504 0.31462,0.0784 -0.14051,0.0388 -0.14599,0.11578 -0.0612,0.13897 0.11086,0.17134 0.75285,-0.29297 0.55839,-0.31921 0.21726,-0.18085 0.0968,-0.11576 0.25655,-0.44439 0.13782,-0.0799 0.24173,0.3731 0.12506,-0.0784 0.18186,-0.25085 0.54397,-0.42196 0.24683,-0.25454 1.54755,-2.83173 0.40268,-0.45755 0.16914,-0.30796 0.0345,-0.3981 0.003,-0.26372 0.0107,-0.18687 -0.0594,-0.11177 -0.21867,-0.0477 -0.10855,0.0432 -0.41,0.31975 -0.56048,0.9567 -0.19895,0.16182 -0.137,0.22657 -0.46358,1.44065 -0.0286,-0.0741 -0.0952,-0.19026 -0.0123,0.0101 -0.003,0.005 0.2551,-1.17963 0.48877,-1.32242 0.10674,-0.69995 0.065,-0.27328 0.39588,-0.86517 0.10682,-0.35885 0.28299,-2.18646 0.40997,-1.242773 0.26848,-0.336168 0.0511,-0.145613 -0.0203,-0.306302 -0.14613,-0.127866 -0.20769,-0.106584 -0.19379,-0.239643 0.10361,-0.03826 0.15968,-0.126687 0.0925,-0.04149 -0.0127,-0.131415 -0.15974,0.05331 -0.15798,-0.0081 -0.14658,-0.08757 -0.13094,-0.169261 0.59056,-0.436876 0.077,-0.171841 -0.006,-0.298645 0.14289,-0.80127 0.0516,-1.229406 -0.0312,-0.643168 -0.1269,-0.413871 -0.10003,-0.128636 -0.10011,-0.107073 -0.11501,-0.08298 -0.1119,-0.06283 -0.24075,0.234936 -0.4659,0.133314 -0.49548,0.05235 -0.33519,-0.03293 -0.0191,-0.157317 0.14928,-0.207475 -0.15948,-0.146231 -0.30378,-0.05255 -0.28704,0.07944 0.0477,-0.214973 0.2854,-0.504332 0.30465,-0.837598 0.39879,-0.712043 0.14276,-0.467874 -0.19721,-0.177815 -0.31269,0.139111 -0.49942,0.470149 -0.31037,0.136986 -0.21197,-0.01219 -0.11318,-0.08981 -0.0907,-0.125406 -0.13689,-0.105758 -0.15503,-0.04317 -0.51087,-0.01563 -0.316,-0.130616 -0.12485,0.04032 -0.22031,0.38954 -0.11984,0.143956 -0.0991,0.161791 -0.0678,0.476734 -0.46726,1.689166 -0.75673,1.400521 -0.22736,0.220815 -0.55538,0.367265 -0.44334,0.505027 -0.32294,0.701606 -0.47062,1.57633 -0.14876,0.765779 -0.0716,0.202308 -0.39079,0.470853 -0.0468,0.169478 -5.3e-4,0.233171 -0.0347,0.29857 -0.0755,0.16365 -0.10398,-0.15169 -0.0265,-0.21842 0.10649,-0.662282 -0.15379,0.140681 -0.15787,0.257089 -0.11364,0.294602 -0.0211,0.23498 0.1248,0.16953 0.19489,0.19848 0.12689,0.27092 -0.0936,0.3817 -0.29248,0.53867 -0.088,0.29274 0.008,0.69101 -0.0438,0.30337 -0.0837,0.27397 -0.95715,1.57502 -0.14275,0.40964 -0.19775,0.78695 -0.70819,1.68735 -0.016,0.20183 -0.10417,0.0771 -1.18429,1.17691 -0.56503,0.74016 -0.16646,0.15887 -0.16749,0.25375 -0.0416,0.53344 0.0115,0.57468 -0.0299,0.40315 -0.1962,0.25249 -0.32827,0.25298 -0.29862,0.30448 -0.0975,0.40063 0.0773,0.21132 0.14156,0.15445 0.14782,0.12061 0.0822,0.0866 0.059,0.22588 0.0425,0.40863 0.0924,0.20737 -0.0502,0.38184 0.1471,0.26361 0.21979,0.24967 0.1984,0.33935 0.007,1.12413 0.0805,0.16948 0.27125,0.2828 0.21859,0.70939 0.28061,1.35912 0.24632,0.55521 0.37306,0.47672 0.87556,0.84418 0.48602,0.87573 0.19457,0.13182 0.53991,0.1667 0.194,-0.043 -0.13332,-0.36494 0.13255,-0.12199 0.16114,-0.19306 0.15651,-0.14117 0.13157,0.008 0.0975,0.0345 0.0477,-0.16686 0.0417,-0.23337 0.0803,-0.17586 0.0729,0.31475 0.13971,0.0466 0.19238,-0.0418 0.20613,0.041 0.18947,0.14984 0.0726,0.14297 -0.0703,0.14304 -0.2288,0.15299 0.2567,0.0227 0.34231,-0.11791 0.59341,-0.36392 0.34078,-0.4304 0.13673,-0.0652 0.30983,0.006 0.11497,-0.0941 0.0643,-0.28222 -0.21359,-0.0972 0.75256,0.0204 0.31743,-0.13089 -0.057,-0.31847 0.16284,-0.0226 0.14802,0.0237 0.13999,0.0752 0.13831,0.12664 0.13613,-0.21746 0.12776,-0.30349 0.15514,-0.19347 0.23088,0.10915 0.11234,0.23618 0.0377,0.25485 0.0843,0.19099 0.22767,0.0558 1.06299,-0.008 0.11847,0.0605 0.0452,0.16795 0.0338,0.19075 0.0949,0.11187 0.12509,0.009 0.10173,-0.0746 0.0961,-0.0828 0.0922,-0.051 0.44509,-0.0719 0.12215,-0.10116 0.40269,-0.42427 1.53911,-0.88422 0.15246,-0.14725 0.29443,-0.39457 0.0951,0.18946 0.11099,0.0584 0.29179,-0.0361 0.61259,-0.23817 0.88854,-0.99837 0.50621,-0.35447 0.31683,-0.11743 0.3194,-0.18683 0.23594,-0.30182 0.0482,-0.46114 0.0814,-0.32365 0.26474,-0.26768 1.09258,-0.6746 0.16495,-0.0649 0.0695,-0.0995 0.0132,-0.19339 -0.075,-0.1957 -0.17576,-0.063 -0.18612,0.003 -0.15449,-0.0377 -0.31385,-0.16458 -0.20918,-0.0557 -0.0924,0.0325 -0.0166,-0.0156 0.0105,-0.18455 0.29008,-0.52446 2.05505,-0.42798 -0.0769,-0.0898 -0.072,-0.11105 -0.0631,-0.058 0.0296,-0.14662 0.0461,-0.12063 0.0629,-0.10541 0.0811,-0.10221 0.40967,0.0515 0.9632,-0.81264 0.53075,-0.0301 0.15864,0.0287 0.0848,-0.11178 0.0141,-0.21412 z m -14.35058,15.93734 -0.0353,-0.25248 -0.18274,-0.23877 -0.2426,-0.11221 -1.1707,-0.0362 -0.5458,-0.12602 -0.23547,-0.014 -4.3252,0.68344 -0.1651,-0.0954 -0.33172,-0.37114 0.69023,-0.45512 0.15754,-0.16118 0.14123,-0.20527 0.21853,-0.24882 0.18823,-0.09 0.0455,0.25351 0.26266,-0.13201 1.11374,-0.77456 0.23567,-0.23541 0.1294,-0.335 -0.0251,-0.47289 -0.0671,-0.30913 -0.0383,-0.0499 -0.0984,0.0354 -0.23053,-0.062 -0.90141,-0.51456 -0.23455,-0.19179 -0.21277,-0.33546 -0.12075,-0.14482 -0.15405,-0.0476 -0.27445,-0.61071 -0.26148,-0.40718 -0.26071,-0.16905 -0.28779,-0.12246 -0.53166,-0.62714 -0.32139,-0.11372 -0.60606,0.11614 -0.27717,0.14598 -0.21108,0.25698 -0.0534,0.20589 -0.0182,0.21458 -0.0567,0.16454 -0.17648,0.0937 -0.096,0.0775 -0.0618,0.16826 -0.0263,0.19316 0.002,0.16989 -0.29774,-0.10739 -0.11872,-0.099 -0.0189,-0.15554 0.2087,-0.0616 0.0932,-7.1e-4 -0.23043,-0.10058 -0.16841,0.14639 -0.15947,0.21335 -0.20989,0.13042 -0.32658,0.007 -0.25967,-0.0571 -1.00166,-0.40276 -0.17774,-0.11555 -0.23309,-0.2495 -0.22201,-0.15075 -0.57073,-0.16731 -0.27192,-0.19974 0.0695,-0.3698 -0.0526,-0.34351 -0.39788,-0.98465 -0.2384,-0.8755 -0.0699,-0.42839 0.0581,-0.19574 0.13416,-0.13201 0.0981,-0.1414 -0.0652,-0.20706 -0.16657,-0.12785 -0.1767,0.015 -0.31638,0.19669 -0.51163,0.45862 -0.86276,1.26281 -2.66737,2.50779 -1.96199,0.74938 -0.3033,0.536 0.46699,-0.46942 0.28763,-0.13782 0.16453,-0.0726 0.14684,0.17804 -0.18513,0.25718 -0.29982,0.22725 -0.24396,0.10701 -0.22247,0.16297 -0.43122,0.6413 -0.30413,0.17078 -0.22957,-0.11848 0.0575,-0.34125 0.30629,-0.69971 -0.25491,0.0428 -0.21937,0.0875 -0.21191,0.0432 -0.26163,-0.0628 -0.084,-0.0824 -0.12316,-0.21582 -0.1207,-0.0938 -0.16711,-0.0393 -0.32143,0.0347 -0.17513,-0.0772 -0.15016,0.19502 -0.2125,0.0464 -0.20436,0.006 -0.12877,0.0585 -0.0795,0.26387 0.0185,0.24059 0.13176,0.176 0.24841,0.0755 -0.10744,0.31853 -0.17442,-0.0458 -0.35393,-0.41261 -0.21488,-0.0467 -0.16323,0.2289 -0.21998,0.60145 -0.12786,0.12762 0.003,-0.29874 0.10118,-0.60268 -0.1914,-0.16342 -0.21852,0.0733 -0.198,0.20834 -0.13292,0.2376 0.0656,-0.41639 0.16566,-0.27942 0.25873,-0.17658 0.65106,-0.19386 0.89987,-0.74062 -0.21296,-0.1703 -0.25215,-0.15894 -0.2617,-0.10377 -0.22757,-0.0253 -0.41104,0.0471 -0.14901,-0.0617 -0.26896,-0.19377 0.2441,-0.10241 0.29024,0.0122 0.30334,-0.0413 0.26814,-0.26862 -0.34082,0.0324 -0.69448,0.22513 -0.36539,0.0492 -2.05836,-0.13672 -0.78618,-0.18805 -1.68435,-0.14129 -0.26519,0.14231 0.52795,0.27027 0.21026,0.22632 0.10367,0.39771 -0.2547,-0.065 -0.23618,-0.002 -0.22904,0.0595 -0.2262,0.10894 -0.72813,0.5513 -0.17311,9.2e-4 -0.0536,-0.17874 0.062,-0.15266 0.1811,-0.20693 0.0365,-0.0944 -6.7e-4,-0.10504 -0.0402,-0.0907 -0.0752,-0.055 -0.048,0.0411 -0.0149,0.1 -0.008,0.10175 -7.1e-4,0.0529 -0.20575,0.12552 -0.59035,0.54018 -0.002,-0.10581 -0.0267,-0.23122 -0.0105,-0.1094 -0.20561,0.25263 -0.0973,0.14738 -0.0368,0.14694 -0.0172,0.21496 -0.10036,-0.018 -0.13251,-0.12109 -0.13651,-0.0931 -0.61491,-0.15858 -0.24641,-0.16889 -0.13246,-0.29571 0.4703,0.0649 0.60944,-0.24961 0.57137,-0.39398 0.36166,-0.34935 -0.41914,-0.16218 -0.43693,0.12793 -0.43415,0.2265 -0.40861,0.12211 -0.21903,-0.0372 -0.42515,-0.14364 -0.22816,-0.0143 -0.0339,0.0497 -0.0755,0.19585 -0.0436,0.0563 -0.0413,-0.0163 -0.10093,-0.0825 -0.0588,-0.0133 -0.13622,0.0275 -0.12268,-5.1e-4 -0.1146,-0.0343 -0.1155,-0.0975 -0.2533,0.16847 -0.28333,-0.0555 -0.10691,-0.16981 0.24536,-0.17039 0.27919,-0.0239 0.5099,0.0485 0.2539,-0.13571 -0.15197,-0.23334 -0.46883,-0.24024 -0.19076,-0.15531 0.26259,-0.0184 0.51159,0.0893 0.25959,-0.0466 -0.45581,-0.39254 -0.74285,-0.0703 -1.371966,0.29532 -0.470862,0.31478 -0.127397,-0.0273 -0.103063,-0.11312 -0.118855,-0.078 -0.08888,0.0261 -0.0237,0.19469 0.06876,0.29123 0.08464,0.14911 0.02943,0.11841 -0.120307,0.22848 -0.0971,0.072 -0.07178,-0.0776 -0.01318,-0.18131 0.05876,-0.23255 -0.308231,-0.0911 -0.614011,0.29774 -0.301513,-0.079 0.135984,-0.15436 0.257974,-0.19426 0.14031,-0.14893 -0.241364,-0.15255 -0.377095,-0.1458 -0.38787,-0.0696 -0.263517,0.0683 -0.103916,-0.43335 -0.219039,-0.29667 -0.286678,-0.16352 -0.31262,-0.0139 -0.09003,-0.53309 -0.501432,-0.32622 -1.455872,-0.37612 -0.135853,0.0131 -0.08405,0.0796 -0.119944,0.14806 -0.107409,0.0969 -0.159878,-0.20009 -8.39e-4,-6.1e-4 0.05391,0.0681 -0.0031,0.007 -0.09046,0.32167 -0.29622,0.10917 -0.360672,-0.006 -0.281343,-0.002 -0.289804,0.10337 -0.239966,0.21031 -0.188995,0.30368 -0.137789,0.40019 -0.135556,0.3402 -0.189496,0.25887 -0.208683,0.239 -0.184219,0.27075 -0.08983,0.255 -0.05582,0.27679 -0.06401,0.25702 -0.09157,0.16091 0.0242,0.0243 0.08995,0.22454 0.02785,0.34918 -0.03808,0.19667 -0.09779,0.23943 -0.142044,0.20953 -0.149528,0.11884 0.192448,-0.0342 0.178021,0.009 0.133045,0.0786 0.08289,0.1821 -0.313124,0.0453 -0.211029,0.0686 -0.180778,0.14807 -0.21718,0.25122 0.06785,-0.21507 -0.01532,-0.0995 -0.05215,-0.0727 -0.03531,-0.11043 0.01647,-0.18271 0.07319,-0.0633 0.09238,-0.0367 0.08381,-0.0947 0.218425,-0.42885 0.0016,-0.22282 -0.187325,-0.21031 -0.984466,0.80403 0.0406,0.22895 -0.07501,0.28943 -0.152039,0.25292 -0.186772,0.11356 -0.273266,0.10068 -0.08113,0.20125 0.05219,0.27425 0.130128,0.3115 -0.113777,0.12437 -0.130495,0.29905 -0.103513,0.16045 -0.07288,0.0537 -0.19295,0.0571 -0.102695,0.0633 -0.373363,0.44431 -0.364621,0.55883 -0.397403,0.3753 -0.547927,0.30773 -0.416603,0.37998 -0.01141,0.56658 -0.19873,0.073 -0.225196,0.30824 -0.34249,0.15073 -1.688606,1.24814 0.482461,0.22743 -0.206276,0.0886 -0.325464,0.20453 -0.203048,0.051 -0.632031,0.62468 -0.164462,0.3782 -0.146247,0.62003 -0.05394,0.67193 0.122244,0.50734 0.414305,-0.45533 0.518508,-0.17957 0.519797,0.064 0.447893,0.2553 0.08361,0.0285 0.172723,-0.0331 0.08494,0.0544 0.03013,0.0992 -0.07802,0.16199 0.02127,0.10351 0.07607,0.20366 -0.0096,0.0965 0.0058,0.0143 0.126559,-0.0586 0.179135,-0.1536 0.160919,-0.22301 0.200483,-0.19225 0.290031,-0.0584 -0.194008,-0.69763 0.438835,-0.62967 0.702269,-0.46372 0.60325,-0.20324 1.658258,0.17892 0.109424,0.0986 0.08764,0.13055 0.146639,0.1266 0.514531,0.13357 0.168871,0.0984 0.110469,-0.16685 0.127721,-0.14961 0.139847,-0.11357 0.158827,-0.0726 0.190475,0.0532 0.171749,0.10659 0.104021,-0.0529 -7.63e-4,-0.42039 0.527384,0.16197 0.438117,-0.0938 0.831109,-0.37429 1.062249,-0.22954 0.552286,-0.006 0.404644,0.18901 -0.0569,0.0367 -0.132113,0.12181 0.541277,0.0513 1.062856,-0.26633 0.419376,0.30665 -0.06321,0.18888 8.22e-4,0.16065 0.07002,0.12722 0.129147,0.0808 0.148406,0.0153 0.07867,-0.0744 0.05331,-0.12426 0.07813,-0.12111 0.326623,-0.39278 0.193678,-0.17557 0.248254,-0.0887 3.093279,-0.31211 0.30873,0.0478 0.61266,0.22617 0.30522,0.0313 1.60706,-0.10287 0.45498,0.17514 -0.49276,0.16374 -0.49151,0.27621 -0.35516,0.45097 -0.0592,0.69703 -0.20565,-0.21284 -0.1584,-0.27249 -0.1821,-0.22378 -0.28471,-0.0766 -0.25956,0.0682 -0.48212,0.24691 -1.33386,0.17999 -0.469727,-0.0881 -0.10465,0.0123 -0.05219,0.0922 -0.11687,0.36175 -0.08042,0.12702 -0.172048,-0.14306 -0.178746,-0.0641 -0.384515,0.01 -0.182164,0.0508 -0.03015,0.10592 0.01429,0.15298 -0.05645,0.21683 -0.208453,0.20997 -0.29432,0.0778 -0.534813,0.009 -0.285525,0.10009 -0.760735,0.58976 -0.840716,0.28061 -1.22245,0.64567 -0.206334,0.21722 -0.11049,0.14718 -0.247669,0.19105 -0.09932,0.12994 0.0035,0.15943 0.04784,0.20526 -0.01502,0.19082 -0.452007,0.26498 0.05139,0.33139 0.217881,0.35748 0.723563,0.7991 0.249098,0.2031 0.26912,0.029 0.0081,0.13172 -0.175348,0.16337 -0.044,0.33846 0.06468,0.37927 0.153722,0.26991 -0.218238,-0.0762 -0.196453,0.002 -0.151634,0.13131 -0.09,0.29992 0.0032,-1.14791 -0.04859,-0.22486 -1.091059,-1.12848 -1.204341,-0.72713 -0.16581,0.0808 -0.1163,0.0868 -0.06858,0.1316 -0.005,0.23438 -0.03695,0.24778 -0.110666,0.15848 -0.153125,0.0528 -0.159242,-0.0664 0.06566,-0.17846 -0.08612,-0.20112 -0.32171,-0.44215 0.213572,-0.19777 0.189187,-0.29531 0.04297,-0.30634 -0.22769,-0.21641 0.09623,-0.36217 0.05419,-0.72742 0.09489,-0.2882 0.162024,-0.23962 0.126005,-0.23043 0.01006,-0.24946 -0.177179,-0.29147 -0.280238,-0.18117 -0.941713,-0.0593 -0.580736,-0.20499 -0.308122,-0.0265 -0.271157,0.17745 0.544276,0.0446 0.598969,0.15285 0.332499,0.3446 -0.23728,0.64317 -0.334102,0.35923 -0.449747,0.36493 -0.479645,0.28757 -0.895522,0.261 -0.92954,0.47358 -0.967961,0.26255 -2.013487,1.26497 -2.122481,1.82868 -2.139388,1.56577 -0.425516,0.58339 -0.250469,0.25613 -1.716615,1.19236 -0.279173,0.0886 -0.264136,0.15143 -0.784088,0.89234 -2.230683,1.73966 -1.388889,1.16714 -0.449816,0.96387 0.251925,0.29082 0.338076,-0.16375 0.555983,-0.4952 0.312663,-0.0567 0.532388,-0.27139 1.092655,-0.86592 0.58914,-0.26953 0.612071,-0.52687 0.258647,0.0431 -0.296507,0.18241 -0.583617,0.49628 -0.396948,0.12326 -0.193363,0.16891 -0.757762,1.04655 -0.113618,-0.14552 -0.132655,0.39765 -0.169933,0.2464 -0.416177,0.41309 -0.318886,0.42561 -0.163427,0.17855 -0.246872,0.15961 -0.266821,0.11337 -0.269139,0.0644 -0.122086,-0.0735 -0.01093,-0.19898 0.03742,-0.24116 0.0085,-0.20129 -0.07336,-0.31948 -0.111722,-0.30137 -0.149672,-0.27065 -0.195756,-0.20901 -1.204075,1.18897 -0.189444,0.26947 -1.502966,1.16587 -2.441151,3.17096 -0.153643,0.36383 -0.03962,0.54965 0.133038,-0.0772 2.137097,-2.75928 1.156207,-1.37947 0.133336,-0.0179 0.135207,0.0396 0.15201,0.0295 0.627016,-0.20996 0.276297,-0.003 0.132293,0.2696 -0.09162,0.36093 -0.249943,0.28318 -0.304739,0.24883 -0.525002,0.58543 -0.525445,0.38374 -0.895134,1.15463 -0.09146,0.23697 -0.08371,0.39234 -0.218566,0.29303 -0.435124,0.42992 -0.238528,0.65439 -0.303752,2.35313 -0.126718,0.4578 -0.08263,0.18666 -0.388595,0.63469 -0.03261,0.12467 -0.04063,0.46492 -0.195553,0.78214 0.0201,0.4222 0.219624,-0.16446 0.167426,0.16976 0.417909,1.23061 0.02733,0.0369 0.09243,0.22397 0.02772,0.16424 -0.177556,0.56598 0.04114,0.304 0.113365,0.27555 0.07033,0.30771 -0.02977,0.17416 -0.176933,0.43011 -0.055,0.20036 0.01459,0.14442 0.03986,0.16323 0.02571,0.18344 -0.05195,0.21402 0.205712,-0.005 0.10029,0.14875 0.03239,0.25714 -0.01195,0.30242 0.09304,-0.15883 0.08982,-0.19751 0.09571,-0.16084 0.149111,-0.0748 0.107198,0.0985 -0.02289,0.24071 -0.08555,0.24912 -0.187758,0.31509 0.229654,1.36181 0.09843,-0.0118 0.09868,-0.24213 0.195369,-0.24564 0.192214,-0.13948 0.09252,0.0904 -0.03575,0.5689 0.05517,0.2304 0.211035,0.25763 0.04595,-0.51696 0.187357,-0.12393 0.169496,0.1879 -7.23e-4,0.42815 0.08766,-0.0101 -0.03084,0.16508 0.01541,0.12658 0.06562,0.0896 0.12226,0.0199 0.126032,-0.0776 0.007,-0.16709 -0.02929,-0.18484 0.02297,-0.14087 0.183514,-0.17083 0.114376,0.0309 0.02078,0.20579 -0.106574,0.3438 0.169768,-0.0676 0.08351,-0.17727 0.119019,-0.48876 -0.166667,-0.26774 -0.444184,-1.08119 -0.03052,-0.11007 -0.0241,-0.13747 -0.01033,-0.18889 0.0081,-0.13186 0.06164,-0.37817 0.02548,-0.0895 0.07142,0.0952 0.07438,0.20605 0.06958,0.3997 0.08463,0.35786 0.02513,0.15148 0.101504,0.29554 0.20933,-0.123 0.367938,-0.44298 -0.0065,-0.12618 -0.170611,-0.1615 0.05431,-0.12614 0.182203,-0.0307 0.217092,0.14394 0.162691,0.31726 0.164304,0.4003 0.180151,0.28279 0.227425,-0.046 -0.07707,-0.16284 -0.03634,-0.16752 -0.02063,-0.38458 0.09847,-0.003 0.164973,0.8464 0.08074,0.26898 0.117021,0.24746 0.246197,0.40658 0.07659,0.1827 0.09045,0.54952 5.95e-4,0.53645 0.05697,0.52262 0.242921,0.50817 0.06793,-0.28688 0.0063,-0.29745 -0.06609,-0.25012 -0.162399,-0.16318 0.08939,-0.29334 0.06218,-0.29442 0.07972,-0.18099 0.140954,0.0348 0.08631,0.16337 0.04224,0.24433 0.01626,0.57421 -0.08949,1.12368 0.06918,0.39801 0.295058,0.3309 0.06015,-0.0199 0.05095,-0.0223 0.04479,-0.0455 0.0383,-0.0828 -0.07354,-0.0994 -0.03702,-0.11074 -0.01709,-0.1499 -0.0092,-0.20961 0.196792,0.19164 0.124578,0.28175 0.03272,0.33065 -0.09493,0.32826 0.140384,0.36236 0.150648,0.0838 0.423027,-0.069 0.227732,0.11439 0.09628,0.0837 -0.01625,0.0618 0.162335,-0.10224 0.0458,-0.11884 0.01892,-0.11749 0.04793,-0.10475 0.502686,-0.42276 0.454433,-0.64066 0.185626,-0.19003 0.08988,0.0983 0.05554,0.0747 0.09857,0.0727 0.06738,0.11445 -0.07597,0.26827 0.02466,0.11166 0.05215,0.10485 0.06653,0.0892 0.582855,0.47977 0.0953,0.19105 0.07361,0.25905 0.145448,0.16692 0.136741,0.0112 0.05379,-0.19023 -0.02825,-0.28733 -0.04738,-0.20358 -0.165571,-0.41856 0.173803,-5.6e-4 0.133709,-0.0886 0.09646,-0.15107 0.05996,-0.21322 -0.08501,-0.22261 0.07807,-0.0985 0.152603,0.0523 0.166851,0.24475 0.122538,0.68895 0.105411,0.22366 0.206805,-0.093 -0.101016,-0.29873 -0.03754,-0.21828 -0.0565,-0.19461 -0.690655,-1.08138 -0.0088,-0.13004 0.21904,0.12125 0.403855,0.4194 0.208331,0.10885 0.14059,-0.0359 0.141736,-0.21453 0.144336,-0.0635 0.130074,0.0774 0.338226,0.59825 -0.114318,-0.87864 -0.07947,-0.11356 -0.08098,-0.0615 -0.02949,-0.14299 0.04247,-0.15035 0.144573,-0.0756 0.0527,-0.0748 -0.01126,-0.16884 -0.02523,-0.18258 0.0053,-0.14805 0.06714,-0.61009 -0.125132,-0.47142 -0.222984,-0.45208 -0.209032,-0.55482 0.239586,0.11897 0.07051,-0.10137 0.0096,-0.18761 0.05176,-0.1536 0.138615,-0.12005 0.109436,-0.0573 0.08647,0.0954 0.07182,0.34497 -0.02693,0.22746 -0.143771,0.49622 0.02276,0.2674 0.565405,0.4133 0.375933,0.0498 0.185754,-0.0629 0.125398,-0.45529 0.194934,-0.5192 -0.388361,-0.71629 -0.101258,-0.42552 0.231696,-0.20062 -0.06751,-0.15235 -0.0064,-0.0676 0.02451,-0.0635 0.02573,-0.15495 0.198576,0.27327 0.211793,0.39482 0.181675,0.42288 0.129593,0.54119 0.10133,0.17448 0.133843,0.10974 0.127028,9.9e-4 0.110957,-0.13755 0.246997,-0.75094 0.09752,0.48722 -0.12558,0.43629 -0.04698,0.36869 0.346471,0.2702 0.05026,-0.45968 0.340237,-0.84732 0.113968,-0.45893 0.211729,0.24995 -0.01622,0.71333 0.253104,0.13583 -0.01524,-0.0663 0.01939,-0.14529 0.07563,-0.15572 0.140311,-0.0707 0.07927,0.0484 0.01769,0.11382 0.03714,0.0623 0.13042,-0.093 0.113015,-0.23621 0.0077,-0.32182 -0.03881,-0.3258 -0.05054,-0.25317 -0.32482,-0.91526 -0.03948,-0.33665 0.29069,0.29517 0.382106,0.954 0.201024,0.23261 0.200808,-0.0412 0.160813,-0.15424 0.121409,-0.20573 0.169078,-0.51179 0.03124,-0.14755 -0.04124,-0.13312 -0.469597,-0.95751 -0.0537,-0.2703 0.252303,0.1173 0.188554,0.35899 0.222788,0.53293 0.2743,0.34746 0.354233,-0.17226 -0.05953,-0.21126 -0.03553,-0.34306 -0.04634,-0.15438 -0.107277,-0.17866 -0.22668,-0.30036 -0.0875,-0.20051 0.158316,0.0171 0.158225,0.0388 0.141223,0.0729 0.143989,0.10703 0.09408,0.1266 0.147202,0.29957 0.07495,0.11932 0.232387,0.18761 0.05571,-0.10326 0.05781,-0.22122 0.235725,-0.18165 -0.103511,-0.27856 0.05861,-0.1657 0.170231,-0.0628 0.231378,0.0215 -0.189289,-0.40316 -0.536217,-0.35174 -0.221467,-0.30212 0.147542,0.002 0.123399,-0.0601 0.08626,-0.12856 0.02014,-0.19528 0.04823,-0.17497 0.123559,-0.0615 0.891,-0.0963 0.182376,-0.12964 0.231801,-0.36545 0.225746,-0.23128 0.235555,-0.0773 0.178464,-0.11756 0.05491,-0.35012 -0.136826,-0.4264 -0.253883,-0.1094 -0.267368,-0.0568 -0.187214,-0.26055 0.968539,-0.0824 0.387537,-0.15377 0.375395,-0.33687 0.259404,0.18518 0.208355,-0.23422 0.132004,-0.42626 0.04126,-0.36672 -0.139739,-0.25623 -0.298417,-0.0491 -0.354326,-0.001 -0.30698,-0.0934 0.100346,-0.013 0.05705,-0.0401 0.05227,-0.0618 0.06849,-0.0627 -0.09204,-0.20831 0.16955,-2.3e-4 0.506699,0.1607 0.05974,-0.0421 0.03147,-0.20413 0.03552,-0.0499 0.08324,0.0155 0.119584,0.0869 0.05915,0.03 0.130919,0.03 0.126813,0.0525 0.237674,0.15524 0.172483,-0.70672 0.06639,-0.17213 0.108386,-0.11999 0.282235,-0.14447 0.127525,-0.12964 0.06054,-0.18915 0.02263,-0.37321 0.06873,-0.17802 0.783984,-0.69802 0.09785,-0.17136 0.02155,-0.13801 -0.0067,-0.19239 -0.03838,-0.16307 -0.07116,-0.0645 -0.260995,-0.0595 -0.291042,-0.18161 -0.255836,-0.25224 -0.167476,-0.27447 0.297753,0.21319 1.113629,0.51438 -0.05408,0.0324 -0.135975,0.12903 0.126823,0.16426 0.131569,0.1392 0.276009,0.22939 0.08601,-0.16118 0.288366,0.24931 0.237717,-0.20058 0.401585,-0.70264 -0.728303,0.064 -0.01708,-0.0913 0.311095,-0.63281 -0.385038,-0.14872 -0.152386,-0.0226 -0.145355,0.0777 0.07457,0.0567 0.148717,0.14671 0.07316,0.0543 -0.165467,0.14071 -0.151127,-0.0582 -0.154502,-0.116 -0.203615,-0.0364 0.04257,-0.1957 -0.009,-0.16679 -0.06541,-0.12055 -0.107744,-0.0844 -0.0112,-0.14233 0.926411,-0.0807 0.509336,0.0774 0.262084,-0.009 0.238539,-0.16056 -0.368392,-0.16143 -0.364592,-0.044 -0.73239,0.0528 -0.01032,-0.13027 0.173587,-0.14212 0.15207,-0.17161 0.175909,-0.14425 0.244606,-0.0607 -0.257178,-0.11261 -0.306978,-0.003 -0.600043,0.091 0.03283,-0.29361 -0.124473,-0.1664 -0.153087,-0.14223 -0.01767,-0.23067 0.604752,-0.23551 0.156493,-0.11543 -0.273325,-0.11877 -0.118249,0.01 0.117422,-0.15624 0.114585,-0.1872 0.08105,-0.22395 0.01754,-0.26286 -0.05016,-0.23643 -0.06508,-0.18997 0.0049,-0.13916 0.154937,-0.0753 -0.13626,-0.30443 -0.07315,-0.0985 0.357137,0.12795 0.419131,0.2612 0.36553,0.10521 0.216096,-0.33557 -0.039,-0.39091 0.181658,-0.20329 0.27619,-0.0669 0.227135,0.0305 0.255205,0.1745 0.260051,0.29623 0.158547,0.34854 -0.05493,0.33159 0.01642,0.12887 0.125444,0.5774 0.175599,0.18876 0.129675,0.0461 0.299405,-0.0645 0.151311,-0.24527 0.08687,-0.45237 0.186899,-0.30298 0.435113,0.19434 -0.248282,-0.7961 -0.195074,-0.40878 -0.236516,-0.15334 -0.144868,-0.13414 -0.0227,-0.71928 -0.101748,-0.2616 0.121272,-0.1075 0.765846,-0.41878 0.156483,-0.023 0.871897,-0.47803 0.255233,-0.20971 0.237001,-0.2859 -0.01122,0.34657 -0.140198,0.29075 -0.350219,0.41958 0.146474,0.0976 0.0637,0.0127 -0.03981,0.16197 -0.07741,0.11648 -0.245374,0.19684 0.232911,0.40675 0.105184,0.13215 -0.222016,0.83394 0.01837,0.41395 0.218232,0.45555 0.115811,0.11044 0.14175,0.0834 0.167875,0.0452 0.184236,7.8e-4 0.194262,-0.0469 0.277552,-0.14697 0.190105,-0.024 -0.07794,-0.20666 -0.03865,-0.0791 0.173496,-0.13309 0.115226,0.0709 0.09726,0.12713 0.115992,0.0443 0.08885,-0.0765 0.158293,-0.26409 0.108175,-0.12653 -0.230256,0.62091 -0.0602,0.27965 0.07251,0.27755 0.192676,0.15038 0.126209,-0.20957 0.10435,-0.34014 0.114143,-0.23614 0.03968,0.26864 0.09126,0.19859 0.136888,0.13718 0.178787,0.0746 0.111021,-0.12016 0.07212,0.11095 0.0585,0.17763 0.0782,0.0865 0.14472,-0.0595 0.0281,-0.1007 0.0216,-0.0949 0.11003,-0.0588 0.47985,-0.15969 0.23208,-0.0387 0.20814,0.10632 -0.0566,0.0798 -0.0882,0.17281 -0.0506,0.18726 0.0439,0.1478 0.12489,0.0213 0.0902,-0.11416 0.0629,-0.1493 0.13183,-0.22894 0.0546,-0.2958 0.10531,-0.2305 0.24231,0.0473 0.001,0.0777 -0.0628,0.1198 -0.02,0.12337 0.11396,0.10253 0.0819,-0.0209 0.26422,-0.15065 0.0744,-0.0674 0.18696,-0.35021 0.11404,-0.31033 -0.0175,-0.3104 -0.37592,-0.63093 -0.0435,-0.22737 0.0141,-0.27051 -0.0231,-0.39767 -0.0616,-0.19507 -0.26281,-0.63986 -0.0855,-0.13396 -0.0775,-0.0816 -0.22198,-0.36057 -0.12991,-0.072 -0.33132,0.0647 -0.10916,-0.0211 -0.18571,-0.14687 -0.14285,-0.22264 -0.22811,-0.58678 0.25111,-0.0343 0.16757,0.0743 0.90289,0.89784 0.52937,0.31656 0.43309,0.45146 0.49348,0.17537 0.30165,0.23247 0.24991,0.0658 0.2163,-0.38316 0.0573,-0.41577 -0.0987,-0.29977 -0.21621,-0.20898 -0.31275,-0.1566 0.52354,-0.36028 0.2519,-0.006 0.18892,0.26497 -0.12653,0.0427 -0.0829,0.0581 -0.1665,0.21215 0.39333,0.21149 1.02356,0.0403 0.46652,0.14033 0.0223,-0.34012 0.39695,-0.65339 0.15937,-0.35711 -0.18031,-0.16183 -0.0871,-0.27979 0.02,-0.30316 0.161,-0.25552 0.0833,0.21028 0.26548,0.46734 0.0831,0.26766 -0.02,0.14488 0.006,0.038 0.15585,-0.0443 0.25903,-0.21957 0.0902,-0.61974 0.24266,-0.2134 -0.0595,0.26212 0.0209,0.24665 0.10632,0.20252 0.20419,0.11661 0.0184,-0.37629 0.13599,-0.59792 0.0147,-0.35658 -0.11326,-0.62565 -0.0357,-0.0564 0.10443,-0.1295 0.12698,0.009 0.11828,0.10794 0.0568,0.18412 0.0208,0.67206 0.11229,0.26947 0.28585,0.0834 0.18963,0.0955 0.047,0.27841 0.0117,0.33012 0.0793,0.27563 0.44545,-0.5008 0.12179,-0.30165 -0.12939,-0.3233 -0.45363,-0.44426 -0.14593,-0.25375 -0.0155,-0.31374 0.18428,0.23483 0.37543,-0.28695 0.21565,0.11332 0.0273,0.12337 0.0342,0.58077 0.0393,0.12177 0.0415,0.0796 0.0286,0.10245 0.0304,0.17353 0.10887,0.0482 0.22425,-0.16077 0.35097,-0.37354 0.20363,-0.15926 0.3086,0.007 0.30911,0.10921 0.20724,0.13811 0.11372,-0.3112 0.0936,0.0732 0.10858,0.21655 0.13398,0.11526 0.16946,-0.0396 0.1512,-0.0744 0.28205,-0.22429 -0.1385,-0.0536 -0.11688,-0.0822 -0.0973,-0.11729 -0.0774,-0.15615 0.1743,-0.0715 0.13223,-0.16036 0.0369,-0.22847 -0.11756,-0.26769 1.62229,-0.53638 0.48713,0.14867 -0.13281,-0.27509 0.49338,-0.56135 0.21794,-0.16397 0.12137,0.20188 0.29044,-0.17455 0.40949,0.65071 0.29591,-0.16223 -0.25722,-0.36431 -0.13233,-0.14406 -0.15787,-0.14068 0.14631,-0.58978 0.36126,0.20449 0.26718,-0.1858 0.1971,-0.40379 0.16575,-0.42913 0.0774,0.41892 0.0429,0.44742 0.11588,0.36009 0.27437,0.1297 -0.0228,-0.40925 0.1146,-0.33239 0.2151,-0.23313 0.27174,-0.0918 -0.078,-0.0831 -0.0801,-0.11972 -0.0679,-0.0591 0.27309,-0.35104 0.2274,-0.0233 0.23856,0.13635 0.31953,0.11948 -0.0572,-0.17183 -0.0161,-0.0389 -0.0486,-0.0652 0.0216,-0.0829 0.0255,-0.0524 0.0192,-0.0627 0.004,-0.0913 0.10391,-0.0163 0.15329,0.083 0.20835,-0.0784 0.21238,-0.17896 0.15423,-0.20858 0.11534,0.13904 0.17655,-0.49681 0.27302,-0.18619 0.68799,-0.028 0.1462,-0.10169 0.28379,-0.33858 0.0603,0.0229 0.12799,0.0858 0.28035,-0.0513 0.28193,-0.11131 0.15691,-0.10586 0.18523,0.0717 0.21566,-0.0797 0.20048,-0.16578 0.12951,-0.20341 0.19562,0.11043 0.21419,0.0151 0.19895,-0.0657 0.16636,-0.15585 -0.84266,-0.16707 -0.23727,-0.11415 0.1587,-0.0742 0.12117,-0.13663 0.11098,-0.15342 0.12849,-0.13874 0.0169,0.13344 0.0377,0.0962 0.0407,0.0852 0.0303,0.10851 0.15886,-0.34028 0.18836,-0.22567 0.22498,-0.0384 0.27702,0.21693 -0.0221,-0.17997 0.0483,-0.42335 0.26794,0.30908 0.31022,0.0858 0.19508,-0.093 -0.0847,-0.24896 0.0745,-0.15089 0.47292,0.11891 0.11846,-0.0491 0.0173,-0.20513 -0.0946,-0.16814 -0.13808,-0.10469 -0.12379,-0.0409 -0.0151,-0.13629 0.1833,-0.0369 0.33465,0.0108 0.14459,-0.0573 -0.23334,-0.37514 0.21859,-0.0658 0.41126,0.12887 0.37208,0.21162 -0.009,-0.088 0.007,-0.0968 -0.006,-0.11463 -0.0347,-0.1355 0.56702,-0.072 0.0825,-0.14325 0.0575,-0.004 0.0509,0.20118 0.1132,0.10348 0.25016,0.0366 0.52777,-0.0478 -0.0163,-0.1262 -0.52428,-0.37776 0.21408,-0.14617 0.11497,-0.0381 0.14077,-0.005 -0.16119,-0.27016 -0.27028,-0.2775 -0.29586,-0.22112 -0.24573,-0.12654 0.19704,-0.15689 0.31698,0.20849 0.27631,0.11201 0.0648,-0.40605 0.45582,0.46892 0.60132,-0.008 2.44617,-0.66352 0.23336,-0.1433 0.20886,-0.20907 0.19162,-0.27997 -0.35761,0.0507 -0.0266,-0.24171 0.16508,-0.3632 0.22504,-0.30793 0.41786,-0.41654 0.26823,-0.16005 0.22591,0.0242 0.0235,0.25179 0.23316,-0.0379 0.39916,-0.2279 0.0423,-0.11824 0.12338,0.13791 0.12378,0.20053 0.12416,0.24455 0.0429,0.14704 0.0689,0.14114 0.14667,0.10013 0.0256,-0.27511 -0.18948,-0.53976 0.0393,-0.32789 0.12587,-0.13823 0.6045,-0.2515 -0.0705,0.22577 -0.0799,0.19303 -0.10349,0.18315 -0.1312,0.16868 0.23275,0.38363 0.28165,0.0599 0.64936,-0.31095 -0.13217,-0.27374 0.22497,0.0755 0.0808,-0.0841 0.0213,-0.1829 0.0637,-0.21893 0.10649,-0.12339 0.0978,-0.036 0.0939,-0.0554 0.089,-0.19708 -0.11062,-0.12582 -0.0935,-0.12995 -0.1452,-0.28516 0.15348,0.0922 0.13724,-0.005 0.13842,-0.031 0.15402,0.0261 0.11652,0.12635 0.0396,0.16892 0.0695,0.10971 0.20015,-0.041 -0.0935,-0.3326 z m -0.48961,-5.82006 -0.69854,0.11195 -0.28738,0.10878 -0.29995,0.17277 -0.26792,0.21802 -0.20799,0.23132 -0.19051,0.0597 -0.0739,0.0668 0.10687,0.24239 0.0118,0.10969 0.0209,0.0827 0.22662,0.0456 0.2212,0.23322 0.15903,0.11505 0.17728,0.057 0.17902,0.017 0.37338,-0.0484 0.15539,0.0597 1e-4,0.18114 -0.10866,0.2118 -0.13689,0.13813 0.31094,0.17021 0.21849,-0.23105 0.20369,-0.37402 0.25595,-0.27521 -0.24119,-0.36569 0.0896,-0.32013 0.48203,-0.5143 0.16428,0.008 0.13264,-0.0469 0.1006,-0.1215 0.0475,-0.19156 -0.15224,-0.13362 -0.15106,-0.0799 -0.11793,0.051 -0.0554,0.23197 -0.27036,-0.17736 z m -61.49464,49.99031 0.110924,-0.34328 -0.658178,-0.0229 -0.162153,0.13896 0.156073,0.49318 -0.381673,0.17187 -0.160906,0.11225 -0.133328,0.19358 0.149751,0.0686 0.153765,0.11111 0.12855,0.1627 0.09475,0.19838 -0.0977,0.28332 0.258435,-0.15135 0.166897,-0.35418 0.137998,-0.39787 0.175503,-0.2862 z m -10.058496,-18.04903 -0.25407,0.192 -0.135448,0.21089 -0.208016,0.48617 -0.374921,0.64336 -0.542181,1.41677 0.210469,0.14247 0.19183,-0.69018 0.799539,-1.19304 0.270135,-0.61876 0.17901,-0.29732 0.0047,-0.22773 z m 87.591786,-43.14078 -0.036,-0.24539 0.006,-0.25268 0.17805,-0.18503 -0.10279,-0.0627 -0.37239,0.17128 -0.69598,0.4563 -0.0126,0.17463 0.29054,0.0436 0.46603,-0.0819 0.17107,0.0359 0.0868,0.0438 z"
       style="fill:#878787;fill-opacity:1;fill-rule:nonzero;stroke:none;stroke-width:0.264583"
       id="path702" />
  </g>
</svg>
